<?xml version="1.0" encoding="utf-8"?>
<!-- Generator: Adobe Illustrator 23.0.6, SVG Export Plug-In . SVG Version: 6.00 Build 0)  -->
<svg version="1.1" id="Layer_1" xmlns="http://www.w3.org/2000/svg" xmlns:xlink="http://www.w3.org/1999/xlink" x="0px" y="0px"
	 viewBox="0 0 302 302" style="enable-background:new 0 0 302 302;" xml:space="preserve">
<style type="text/css">
	.st0{fill:#006B3F;}
</style>
<g>
	<path class="st0" d="M121,180.5c-5.5,5.7-9.5,11.2-14.5,15.8c-2.6,2.4-3.7,2.2-5.2-0.9c-14-28.2-13.3-56.1,1.5-83.7
		c1.7-3.1,2.6-3.2,4.5-0.2c3.2,5.1,5.8,10.6,6.9,16.5c0.9,4.6,4.1,3.4,6.9,3.5c3.6,0.1,2.8-2.6,2.8-4.6c0-12,0.1-24-0.1-36
		c-0.1-3.4,1.1-5.4,3.9-7.3c25.8-17.7,53.4-20.9,82.7-10c4.1,1.5,8,3.2,12.2,4.5c7.4,2.4,11.3,0.3,13.8-7c0.4-1.1,0.5-2.4,1.1-3.3
		c0.8-1,2.2-0.6,3.3-0.5c1.7,0.1,1.5,1.5,1.5,2.6c0,17,0,34,0,51c0,1.6-0.1,2.9-2.3,3c-2.1,0.1-3.1-0.8-3.5-2.6
		c-1.3-5.2-3-10.2-5.6-14.9c-10.3-18.7-25.9-29.4-47.5-27.9c-20.9,1.4-34.9,13.5-42.6,32.8c-1.8,4.6-3,9.5-4.4,14.3
		c-1.1,3.6-0.3,5.1,3.9,4.5c12.5-1.9,25.1-3.4,37.6-5.4c3.9-0.7,4.5,0.5,4.3,3.9c-0.2,3.3,0,6.6,0,9.9c2.7,0.5,3.5-1.5,4.7-2.7
		c9.9-8.9,20.9-14.8,34.7-13.6c3.2,0.3,6.3,0.9,9,2.8c3.2,2.2,5.8,4.8,4.9,9c-0.8,4.1-4,6-7.7,7c-6.9,1.9-13.5,1.1-19.9-2
		c-9-4.2-16.9-1.5-21.7,7.6c-2.7,5.1-3.8,10.7-3.8,16.4c-0.1,7,0.2,14,0.3,21c0,4.4,2.2,6.9,6.5,7.4c3.6,0.4,7.3,0.5,10.9,0.8
		c1.6,0.1,3.7-0.2,3.4,2.4c-0.3,2.4-2.3,1.5-3.6,1.5c-17.3,0.1-34.7,0-52,0c-1.8,0-3.6,0-6.2,0c5.8,14.5,15.1,24.5,30.1,27.8
		c21.5,4.9,40.1-1.1,55.9-16.3c3.5-3.3,7.6-6.1,10.9-9.6c-3-2.4-5.3-1.5-7.2-2c-2.1-0.6-5.9,2-5.9-1.9c-0.1-3.3,3.6-1.7,5.6-2
		c3.4-0.6,6.9-0.8,10.4-1.2c4.2-0.5,6.5-2.6,6.7-7.1c0.3-7,0.5-14-0.2-21c-0.6-5.9-2-7-8.1-6.6c-3.7,0.2-7.3,0.7-10.9,0.9
		c-1.2,0.1-2.8,0.6-2.9-1.6c-0.1-1.7,0.7-2.3,2.3-2.5c15.6-2.3,31.3-4.6,46.9-7c3.1-0.5,3.6,0.9,3.6,3.6c-0.1,10.3-0.1,20.7,0,31
		c0.1,8.5,1.2,9.6,9.6,10.7c2.6,0.3,5.3,0.5,7.9,0.8c1.6,0.2,4.2-0.8,4.3,2c0.1,3.2-2.6,1.9-4.1,1.9c-17.3,0.1-34.7,0.2-52-0.1
		c-4.6-0.1-6.5,1.2-5.6,5.7c1.3,6.3-1.8,10.5-6.3,14.6c-17.3,16.2-38.1,21.9-61.2,20.6c-21.2-1.2-40.5-7.6-56.3-22.6
		c-4.8-4.5-4.9-4.7,0.2-9c4.1-3.5,6.3-7.4,5.6-12.9C120.6,188.8,121,185.2,121,180.5z M152.8,164.1c0-5.8,0-10.5,0-15.1
		c0-12.7-1.4-14.1-14-13.8c-0.2,0-0.3,0-0.5,0c-2.7-0.4-4,0.7-4.2,3.5c-1,16.7-0.1,33.3,4.6,49.4c0.3,1.1,0.4,2.3,1.7,2.9
		c4.1,1.9,10.8-1.5,11.6-6C153.5,177.6,152.5,170.3,152.8,164.1z"/>
	<path class="st0" d="M117.9,187.5c0.9,6.2,1.2,11-3.6,15.5c-20.5,19.1-44.3,21-69.4,12.8c-24.8-8.2-37.8-27.1-41-52.4
		c-4.5-36.7,17.1-69,51-77.8c13.6-3.5,27.1-2.3,40.2,2.6c3.3,1.2,6.5,2.6,9.8,3.8c6.1,2.2,8.9,0.8,11.3-5.1c0.6-1.4,0.5-3.4,3-3.1
		c2.7,0.3,1.8,2.4,1.8,3.8c0.1,12.7,0.1,25.3,0,38c0,1.3,0.7,3.1-1.7,3.5c-2.3,0.3-2.8-1.3-3.2-2.9c-2.3-8.5-5.9-16.3-12.3-22.5
		c-18.3-18.1-47.5-13.5-59.5,9.5c-7,13.4-8.4,27.9-7.8,42.7c0.4,9.2,1.7,18.2,4.3,27c7.8,26,33.8,36.1,57.3,22.4
		C105.9,200.9,111.8,194.6,117.9,187.5z"/>
	<path class="st0" d="M261.8,142.2c-5.7,0.2-10.9-0.7-15.4-4c-4.8-3.5-4.8-8.3-0.1-12c7.3-5.7,24-5.6,31.1,0.2
		c4.2,3.5,4.2,8.5-0.3,11.7C272.4,141.4,267.1,142.4,261.8,142.2z"/>
</g>
</svg>
