<?xml version="1.0" encoding="utf-8"?>
<!-- Generator: Adobe Illustrator 23.0.6, SVG Export Plug-In . SVG Version: 6.00 Build 0)  -->
<svg version="1.1" id="Layer_1" xmlns="http://www.w3.org/2000/svg" xmlns:xlink="http://www.w3.org/1999/xlink" x="0px" y="0px"
	 viewBox="0 0 236 236" style="enable-background:new 0 0 236 236;" xml:space="preserve">
<style type="text/css">
	.st0{fill:#00B2E5;}
	.st1{fill:#FAFDFE;}
</style>
<g>
	<g>
		<path class="st0" d="M237,119.5c0,38,0,76,0.1,114c0,3-0.6,3.6-3.6,3.6c-76.3-0.1-152.7-0.1-229,0c-3,0-3.6-0.6-3.6-3.6
			C1,157.2,1,80.8,0.9,4.5c0-3,0.6-3.6,3.6-3.6c76.3,0.1,152.7,0.1,229,0c3,0,3.6,0.6,3.6,3.6C237,42.8,237,81.2,237,119.5z
			 M68.9,192c5.1,0,9.6-0.3,14.1,0.1c3.7,0.3,5.1-1.2,6.1-4.6c10.3-34.8,20.7-69.5,31.1-104.2c3.2-10.6,6.4-21.2,9.7-32.3
			c-5.5,0-10.3,0.2-15.1-0.1c-3-0.2-4,1.1-4.7,3.7c-4.4,15.2-9,30.3-13.5,45.4C87.4,130.4,78.3,160.8,68.9,192z M168.1,51
			c-5.1,0-9.6,0.3-14-0.1c-3.7-0.3-5.1,1.1-6.1,4.5c-10.2,34.6-20.6,69.2-30.9,103.7c-3.2,10.8-6.4,21.6-9.8,32.8
			c5.4,0,10.3-0.2,15.1,0.1c3,0.2,4-1,4.8-3.6c3.8-12.9,7.7-25.8,11.5-38.7C148.3,117.1,158.1,84.4,168.1,51z"/>
		<path class="st1" d="M68.9,192c9.3-31.2,18.4-61.6,27.5-92c4.5-15.1,9.1-30.3,13.5-45.4c0.7-2.6,1.7-3.9,4.7-3.7
			c4.8,0.3,9.6,0.1,15.1,0.1c-3.3,11.1-6.5,21.7-9.7,32.3c-10.4,34.7-20.8,69.5-31.1,104.2c-1,3.4-2.3,4.9-6.1,4.6
			C78.6,191.7,74.1,192,68.9,192z"/>
		<path class="st1" d="M168.1,51c-10,33.4-19.8,66.1-29.5,98.7c-3.9,12.9-7.8,25.8-11.5,38.7c-0.8,2.6-1.8,3.8-4.8,3.6
			c-4.8-0.3-9.6-0.1-15.1-0.1c3.4-11.3,6.6-22,9.8-32.8c10.3-34.6,20.7-69.1,30.9-103.7c1-3.4,2.4-4.8,6.1-4.5
			C158.5,51.3,163,51,168.1,51z"/>
	</g>
</g>
</svg>
