<svg id="Layer_1" data-name="Layer 1" xmlns="http://www.w3.org/2000/svg" viewBox="0 0 512 512"><defs><style>.cls-1{fill:#4d4d4d;}.cls-2{fill:#fff;}</style></defs><path class="cls-1" d="M468,512H44a12.67,12.67,0,0,0-2.2-.92A52,52,0,0,1,11.66,493C5.49,485.65,2.51,477,0,468V44a12.67,12.67,0,0,0,.92-2.2A52,52,0,0,1,19.05,11.66C26.35,5.49,35,2.51,44,0H468a12.67,12.67,0,0,0,2.2.92,52,52,0,0,1,30.14,18.13c6.17,7.3,9.15,16,11.66,25V468a12.67,12.67,0,0,0-.92,2.2A52,52,0,0,1,493,500.34C485.65,506.51,477,509.49,468,512ZM205.24,205.07V434.73h76.42v-6.3q0-62,0-124c0-3.16.11-6.34.4-9.48,2-22.23,26.7-38.78,47.9-32.2,17.85,5.54,28.32,20,28.35,39.48q.1,63.24,0,126.48v6.11h76.59c.07-1.56.17-2.85.18-4.14,0-46.83.13-93.66-.05-140.48-.11-31.22-13.31-56.18-38.64-74-36.26-25.52-78.26-21.2-108.76,11.36-1.83,2-3.42,4.16-5.12,6.25l-1-.4V205.07ZM77.06,434.73h76.21V205.25H77.06Zm84.08-319.47a46.13,46.13,0,0,0-46-46.14c-25.31.09-46.26,21.15-46,46.25a46,46,0,0,0,92-.11Z" transform="translate(0)"/><path class="cls-2" d="M44,0C35,2.51,26.35,5.49,19.05,11.66A52,52,0,0,0,.92,41.8,12.67,12.67,0,0,1,0,44V0Z" transform="translate(0)"/><path class="cls-2" d="M512,44c-2.51-9-5.49-17.65-11.66-24.95A52,52,0,0,0,470.2.92,12.67,12.67,0,0,1,468,0h44Z" transform="translate(0)"/><path class="cls-2" d="M0,468c2.51,9,5.49,17.65,11.66,24.95A52,52,0,0,0,41.8,511.08,12.67,12.67,0,0,1,44,512H0Z" transform="translate(0)"/><path class="cls-2" d="M468,512c9-2.51,17.65-5.49,24.95-11.66a52,52,0,0,0,18.13-30.14A12.67,12.67,0,0,1,512,468v44Z" transform="translate(0)"/><path class="cls-2" d="M205.24,205.07h76.27v28.36l1,.4c1.7-2.09,3.29-4.29,5.12-6.25,30.5-32.56,72.5-36.88,108.76-11.36C421.75,234,435,259,435.06,290.22c.18,46.82.05,93.65.05,140.48,0,1.29-.11,2.58-.18,4.14H358.34v-6.11q0-63.24,0-126.48c0-19.52-10.5-33.94-28.35-39.48-21.2-6.58-45.86,10-47.9,32.2-.29,3.14-.39,6.32-.4,9.48q0,62,0,124v6.3H205.24Z" transform="translate(0)"/><path class="cls-2" d="M77.06,434.73V205.25h76.21V434.73Z" transform="translate(0)"/><path class="cls-2" d="M161.14,115.26a46,46,0,0,1-92,.11c-.24-25.1,20.71-46.16,46-46.25A46.13,46.13,0,0,1,161.14,115.26Z" transform="translate(0)"/></svg>