<?xml version="1.0" encoding="utf-8"?>
<!-- Generator: Adobe Illustrator 25.1.0, SVG Export Plug-In . SVG Version: 6.00 Build 0)  -->
<svg version="1.1" id="Layer_1" xmlns="http://www.w3.org/2000/svg" xmlns:xlink="http://www.w3.org/1999/xlink" x="0px" y="0px"
	 viewBox="0 0 512 512" style="enable-background:new 0 0 512 512;" xml:space="preserve">
<style type="text/css">
	.st0{fill:#FFFFFF;}
</style>
<path class="st0" d="M468,512H44c-0.7-0.4-1.4-0.7-2.2-0.9c-11.8-2.3-22.5-8.7-30.1-18.1c-6.2-7.4-9.1-16-11.7-25V44
	c0.4-0.7,0.7-1.4,0.9-2.2C3.3,30,9.7,19.3,19,11.7C26.4,5.5,35,2.5,44,0h424c0.7,0.4,1.4,0.7,2.2,0.9C482,3.3,492.7,9.7,500.3,19
	c6.2,7.3,9.1,16,11.7,25v424c-0.4,0.7-0.7,1.4-0.9,2.2c-2.3,11.8-8.7,22.5-18.1,30.1C485.6,506.5,477,509.5,468,512z M205.2,205.1
	v229.7h76.4v-6.3c0-41.3,0-82.7,0-124c0-3.2,0.1-6.3,0.4-9.5c2-22.2,26.7-38.8,47.9-32.2c17.9,5.5,28.3,20,28.4,39.5
	c0.1,42.2,0.1,84.3,0,126.5v6.1h76.6c0.1-1.6,0.2-2.9,0.2-4.1c0-46.8,0.1-93.7,0-140.5c-0.1-31.2-13.3-56.2-38.6-74
	c-36.3-25.5-78.3-21.2-108.8,11.4c-1.8,2-3.4,4.2-5.1,6.3l-1-0.4v-28.3H205.2z M77.1,434.7h76.2V205.3H77.1V434.7z M161.1,115.3
	c0-25.4-20.6-46.1-46-46.1c-25.3,0.1-46.3,21.2-46,46.3c0,25.4,20.6,46,46.1,45.9C140.6,161.3,161.2,140.7,161.1,115.3L161.1,115.3z
	"/>
</svg>
