<?xml version="1.0" encoding="utf-8"?>
<!-- Generator: Adobe Illustrator 25.1.0, SVG Export Plug-In . SVG Version: 6.00 Build 0)  -->
<svg version="1.1" id="Layer_1" xmlns="http://www.w3.org/2000/svg" xmlns:xlink="http://www.w3.org/1999/xlink" x="0px" y="0px"
	 viewBox="0 0 512 512" style="enable-background:new 0 0 512 512;" xml:space="preserve">
<style type="text/css">
	.st0{fill:#FFFFFF;}
	.st1{display:none;fill:#FFFFFF;stroke:#000000;stroke-miterlimit:10;}
	.st2{display:none;}
	.st3{display:inline;fill:#FFFFFF;}
	.st4{display:inline;}
</style>
<path class="st0" d="M499.7,124.1c-10.7-13.7-27.4-22.6-46.1-22.6H58.4c-18.7,0-35.4,8.8-46.1,22.6l221.5,164.5
	c13.7,10.2,31.6,10.2,45.4,0L499.7,124.1z"/>
<g>
	<g>
		<path class="st0" d="M511.5,152.4v2.5h0.3C511.7,154.1,511.6,153.2,511.5,152.4z"/>
	</g>
	<g>
		<path class="st0" d="M0.5,152.4c-0.1,0.8-0.2,1.7-0.3,2.5h0.3V152.4z"/>
	</g>
	<g>
		<path class="st0" d="M511.5,155.3L511.5,155.3l-0.1,0.1L353.1,273.5l149.2,110.8c6.1-9.2,9.7-20.3,9.7-32.2V159.9
			c0-1.6-0.1-3.3-0.2-4.9L511.5,155.3z"/>
	</g>
	<g>
		<path class="st0" d="M0.6,155.4H0.5v-0.1l-0.3-0.2C0.1,156.7,0,158.3,0,160v192.1C0,364,3.6,375,9.7,384.2l149.2-111.3L0.6,155.4z
			"/>
	</g>
</g>
<path class="st1" d="M512.2,262.9l-0.5-0.4v-0.1h-0.1L278.3,89.2C264.6,79,246.7,79,233,89.2L0.8,262.4H0.7v0.1l-0.5,0.4h0.5v167.5
	h511V262.9H512.2z"/>
<path class="st1" d="M476.9,397.7c-7.2,3.2-15.2,5-23.5,5H58.2c-8.4,0-16.4-1.8-23.6-5l198-147.7c13.7-10.2,31.6-10.2,45.4,0
	L476.9,397.7z"/>
<g class="st2">
	<path class="st3" d="M58.2,402.2c-31.9,0-57.9-26-57.9-57.9V152.1c0-31.9,26-57.9,57.9-57.9h395.1c31.9,0,57.9,26,57.9,57.9v192.1
		c0,31.9-26,57.9-57.9,57.9H58.2V402.2z"/>
	<path class="st4" d="M453.4,94.7c31.7,0,57.4,25.8,57.4,57.4v192.1c0,31.7-25.8,57.4-57.4,57.4H58.2c-31.7,0-57.4-25.8-57.4-57.4
		V152.1c0-31.7,25.8-57.4,57.4-57.4L453.4,94.7 M453.4,93.7H58.2c-32.3,0-58.4,26.2-58.4,58.4v192.1c0,32.3,26.2,58.4,58.4,58.4
		h395.1c32.3,0,58.4-26.2,58.4-58.4V152.1C511.8,119.8,485.6,93.7,453.4,93.7L453.4,93.7z"/>
</g>
<path class="st0" d="M279.2,328.6c-13.7,10.2-31.6,10.2-45.4,0l-48.1-35.7l-151,112.6c7.2,3.2,15.2,5,23.6,5h395.1
	c8.4,0,16.3-1.8,23.5-5L326,293.5L279.2,328.6z"/>
</svg>
