<svg id="Layer_1" data-name="Layer 1" xmlns="http://www.w3.org/2000/svg" viewBox="0 0 500 500.19"><defs><style>.cls-1{fill:#4d4d4d;}</style></defs><path class="cls-1" d="M487.27,374,384.11,326.72l-77.62,67.92c-34.71-21.91-70.47-50.43-104.55-84.52C167.67,275.86,139,239.89,117.07,205l67.57-77.21L137.37,24.63a32.09,32.09,0,0,0-51.86-9.32L28,72.79c-1.12,1-2.22,1.95-3.27,3s-2,2.14-3,3.25l-.19.19v0c-44,52,8.06,181,119.16,292.06C254.4,485,386.71,536.88,436.28,487.31a56.45,56.45,0,0,0,6.16-7.32l54.15-54.15A32.07,32.07,0,0,0,487.27,374Z" transform="translate(-6 -5.91)"/></svg>