<?xml version="1.0" encoding="utf-8"?>
<!-- Generator: Adobe Illustrator 25.1.0, SVG Export Plug-In . SVG Version: 6.00 Build 0)  -->
<svg version="1.1" id="Layer_1" xmlns="http://www.w3.org/2000/svg" xmlns:xlink="http://www.w3.org/1999/xlink" x="0px" y="0px"
	 viewBox="0 0 500 500.2" style="enable-background:new 0 0 500 500.2;" xml:space="preserve">
<style type="text/css">
	.st0{fill:#FFFFFF;}
</style>
<path class="st0" d="M481.3,368.1l-103.2-47.3l-77.6,67.9c-34.7-21.9-70.5-50.4-104.6-84.5c-34.3-34.3-62.9-70.2-84.9-105.1
	l67.6-77.2L131.4,18.7C124,2.6,104.9-4.5,88.8,2.9c-3.5,1.6-6.6,3.8-9.3,6.5L22,66.9c-1.1,1-2.2,1.9-3.3,3s-2,2.1-3,3.3l-0.2,0.2
	l0,0c-44,52,8.1,181,119.2,292.1c113.7,113.7,246,165.6,295.6,116c2.3-2.3,4.3-4.7,6.2-7.3l54.1-54.1c12.5-12.5,12.5-32.8,0-45.4
	C487.9,371.9,484.7,369.7,481.3,368.1z"/>
</svg>
