<?xml version="1.0" encoding="utf-8"?>
<!-- Generator: Adobe Illustrator 23.0.6, SVG Export Plug-In . SVG Version: 6.00 Build 0)  -->
<svg version="1.1" id="Layer_1" xmlns="http://www.w3.org/2000/svg" xmlns:xlink="http://www.w3.org/1999/xlink" x="0px" y="0px"
	 viewBox="0 0 40 40" style="enable-background:new 0 0 40 40;" xml:space="preserve">
<style type="text/css">
	.st0{fill:#61DAFB;}
</style>
<g>
	<path class="st0" d="M40,20c0-2.6-3.3-5.2-8.4-6.7c1.2-5.2,0.7-9.3-1.6-10.6c-0.5-0.3-1.1-0.5-1.8-0.5V4c0.4,0,0.7,0.1,0.9,0.2
		c1.1,0.6,1.6,3.1,1.2,6.2c-0.1,0.8-0.2,1.6-0.4,2.4c-1.6-0.4-3.3-0.7-5.2-0.9c-1.1-1.5-2.2-2.9-3.4-4.1C23.9,5.4,26.4,4,28.1,4V2.2
		l0,0c-2.2,0-5.2,1.6-8.1,4.4c-3-2.8-5.9-4.3-8.1-4.3V4c1.7,0,4.2,1.3,6.8,3.8c-1.1,1.2-2.3,2.6-3.4,4.1c-1.8,0.2-3.6,0.5-5.2,0.9
		c-0.2-0.8-0.3-1.6-0.4-2.4c-0.4-3.1,0.1-5.5,1.2-6.2C11.1,4.1,11.5,4,11.8,4V2.2l0,0c-0.7,0-1.3,0.1-1.8,0.5
		C7.7,4,7.2,8.1,8.4,13.3C3.3,14.9,0,17.4,0,20c0,2.6,3.3,5.2,8.4,6.7c-1.2,5.2-0.7,9.3,1.6,10.6c0.5,0.3,1.1,0.5,1.8,0.5
		c2.2,0,5.2-1.6,8.1-4.4c3,2.8,5.9,4.3,8.1,4.3c0.7,0,1.3-0.1,1.8-0.5c2.3-1.3,2.8-5.4,1.6-10.6C36.7,25.2,40,22.6,40,20z
		 M29.4,14.6c-0.3,1.1-0.7,2.1-1.1,3.2c-0.3-0.7-0.7-1.3-1.1-2c-0.4-0.7-0.8-1.3-1.2-1.9C27.2,14.1,28.3,14.3,29.4,14.6z M25.7,23.2
		c-0.6,1.1-1.3,2.1-2,3.1c-1.2,0.1-2.4,0.2-3.7,0.2c-1.2,0-2.5-0.1-3.7-0.2c-0.7-1-1.3-2-2-3.1c-0.6-1.1-1.2-2.2-1.7-3.2
		c0.5-1.1,1.1-2.2,1.7-3.3c0.6-1.1,1.3-2.1,2-3.1c1.2-0.1,2.4-0.2,3.7-0.2c1.2,0,2.5,0.1,3.7,0.2c0.7,1,1.3,2,2,3.1
		c0.6,1.1,1.2,2.2,1.7,3.2C26.8,21.1,26.3,22.2,25.7,23.2z M28.3,22.2c0.4,1.1,0.8,2.2,1.1,3.2c-1.1,0.3-2.2,0.5-3.4,0.7
		c0.4-0.6,0.8-1.3,1.2-1.9C27.6,23.5,27.9,22.8,28.3,22.2z M20,30.9c-0.8-0.8-1.5-1.7-2.3-2.6c0.7,0,1.5,0.1,2.2,0.1
		c0.8,0,1.5,0,2.3-0.1C21.5,29.2,20.8,30.1,20,30.9z M14,26.1c-1.2-0.2-2.3-0.4-3.3-0.6c0.3-1.1,0.7-2.1,1.1-3.2
		c0.3,0.7,0.7,1.3,1.1,2C13.2,24.8,13.6,25.5,14,26.1z M20,9.1c0.8,0.8,1.5,1.7,2.3,2.6c-0.7,0-1.5-0.1-2.2-0.1
		c-0.8,0-1.5,0-2.3,0.1C18.5,10.8,19.2,9.9,20,9.1z M13.9,13.9c-0.4,0.6-0.8,1.3-1.2,1.9c-0.4,0.7-0.7,1.3-1.1,2
		c-0.4-1.1-0.8-2.2-1.1-3.2C11.7,14.3,12.8,14.1,13.9,13.9z M6.6,24.1c-2.9-1.2-4.8-2.8-4.8-4.1c0-1.3,1.9-2.9,4.8-4.1
		c0.7-0.3,1.5-0.6,2.3-0.8c0.5,1.6,1.1,3.3,1.8,5c-0.8,1.7-1.4,3.4-1.8,4.9C8,24.7,7.3,24.4,6.6,24.1z M10.9,35.8
		c-1.1-0.6-1.6-3.1-1.2-6.2c0.1-0.8,0.2-1.6,0.4-2.4c1.6,0.4,3.3,0.7,5.2,0.9c1.1,1.5,2.2,2.9,3.4,4.1c-2.7,2.5-5.2,3.8-6.8,3.8
		C11.5,36,11.2,35.9,10.9,35.8z M30.3,29.6c0.4,3.1-0.1,5.5-1.2,6.2c-0.2,0.1-0.6,0.2-0.9,0.2c-1.7,0-4.2-1.3-6.8-3.8
		c1.1-1.2,2.3-2.6,3.4-4.1c1.8-0.2,3.6-0.5,5.2-0.9C30.1,28,30.2,28.8,30.3,29.6z M33.4,24.1c-0.7,0.3-1.5,0.6-2.3,0.8
		c-0.5-1.6-1.1-3.3-1.8-5c0.8-1.7,1.4-3.4,1.8-4.9c0.8,0.3,1.6,0.5,2.3,0.8c2.9,1.2,4.8,2.8,4.8,4.1C38.2,21.3,36.3,22.9,33.4,24.1z
		"/>
	<path class="st0" d="M11.8,2.2L11.8,2.2L11.8,2.2z"/>
	<circle class="st0" cx="20" cy="20" r="3.7"/>
	<path class="st0" d="M28.1,2.2L28.1,2.2L28.1,2.2z"/>
</g>
</svg>
