<?xml version="1.0" encoding="utf-8"?>
<!-- Generator: Adobe Illustrator 25.0.1, SVG Export Plug-In . SVG Version: 6.00 Build 0)  -->
<svg version="1.1" id="Layer_1" xmlns="http://www.w3.org/2000/svg" xmlns:xlink="http://www.w3.org/1999/xlink" x="0px" y="0px"
	 viewBox="0 0 500 500" style="enable-background:new 0 0 500 500;" xml:space="preserve">
<style type="text/css">
	.st0{fill:#FFFFFF;}
</style>
<g>
	<path class="st0" d="M247.1,500C108.1,498.5-0.7,384.3,0,249C0.7,115.2,106.5,4.9,240.8,0.2C386.2-4.9,500.8,112.2,500,251
		C499.2,392.4,383.6,502,247.1,500z M251.2,31.8C134.2,31.1,33.5,126,34.1,249.9c0.5,119.6,96.5,214.3,213.7,216.1
		c120.3,1.8,220.9-94.3,220.5-217.8C467.8,123.9,366.3,31,251.2,31.8z"/>
	<path class="st0" d="M248.8,160.3c10.6-0.3,20.6,0.6,29.7,6.2c26.5-27.4,58.7-44.5,96.6-52.7c-1,1.3-1.5,1.9-2,2.6
		c-12.4,16.2-24.7,32.4-37.2,48.6c-4.4,5.7-6.2,12.1-6.1,19.3c0.3,39.7,0.4,79.5,0.6,119.2c0,5.1,0.2,10.1,0.6,15.2
		c0.1,1.2,0.8,2.7,1.8,3.5c5.3,4.3,11.4,4.4,17.7,2.9c9-2.2,16.8-6.8,23.9-12.5c8-6.4,15.6-13.4,23.2-20c0-0.1,0,0.3-0.1,0.6
		c-20.2,39.5-47.1,73.1-84.7,97.4c-4.2,2.7-4.3,2.7-8.1-0.6c-9.6-8.1-19.3-16.2-28.9-24.4c-0.4-0.3-0.9-0.6-1.6-1.1
		c-1.5,1.6-2.9,3.1-4.4,4.6c-10,10.7-20.1,21.3-30.1,32c-1.1,1.2-2.2,1.7-3.9,1.5c-29.3-3.9-57.2-11.8-82.8-27.2
		c-11.7-7-21.9-15.7-30.2-26.6c-0.6-0.7-1.1-1.5-1.5-2.1c4.5,0.4,9,1.3,13.4,1c7.7-0.5,11.6-5.1,11.6-12.8
		c0.1-29.4,0.1-58.7,0.1-88.1c0-9.5,0-19,0-28.5c0-9.9-7.2-15.6-16.9-13.7c-7.1,1.5-13.2,5.1-18.9,9.4
		c-13.6,10.6-24.7,23.6-35.2,37.2c-9.7,12.5-18.1,25.9-25.1,40.1c-0.2,0.4-0.4,0.7-1,1.6c-0.2-1.9-0.4-3.2-0.5-4.5
		c-1.1-22.2,5.1-42.6,15-62.1c6.9-13.6,15.7-26,25.7-37.4c19-21.6,39.1-41.9,62.6-58.7c20-14.3,42-24.7,65.7-31.3
		c0.3-0.1,0.7-0.1,1.4-0.2c-3.5,2.7-6.8,5.1-9.8,7.7c-9.3,8.1-17.1,17.3-20.1,29.7c-2,8.3-1.7,16.6,0.9,24.7
		c2.2,6.9,7.6,11.7,16.3,7.4c0.4-0.2,0.8-0.3,1.5-0.5c0,1.3,0,2.3,0,3.3c0,48.1,0.2,96.2-0.1,144.3c0,7,3,11.6,7.9,15.6
		c6.2,5.1,13.4,6,20.9,4c11.3-3,20.7-9.5,29.7-16.7c0.5-0.4,0.8-1.5,0.8-2.3c0-41.8,0.2-83.6-0.2-125.4c-0.1-9.3-5-17.3-11.2-24.1
		C253.7,164.6,251.3,162.7,248.8,160.3z"/>
	<path class="st0" d="M415.3,129.3c-2.3,17.4-4.7,34.7-7.1,52.5c3.2,0,6.1,0,9.3,0c-0.5,4.3-0.9,8.1-1.4,12
		c-0.1,0.5-1.2,1.2-1.8,1.2c-2.5,0.1-4.9,0.1-7.6,0.1c-0.6,5-1.3,9.7-1.9,14.6c1.2,0.2,2.2,0.4,3.5,0.6c-0.2,1.3-0.3,2.5-0.5,3.8
		c-6.3,0-12.6,0-19.3,0c0.7-6.3,1.5-12.4,2.3-19c-11.4,0-22.6,0-34.1,0c1.1-6.7,0.9-13,5.3-18.8c9.3-12.3,17.9-25.1,26.7-37.8
		c1.1-1.7,2.4-2.3,4.3-2.3c2.8,0,5.7-0.1,8.5-0.5c5.2-0.6,9.9-2.6,13.4-6.8C414.9,129,415.1,129.2,415.3,129.3z M395.6,152.7
		c-0.3-0.1-0.5-0.1-0.8-0.2c-6.6,9.6-13.2,19.2-20,29.1c6.1,0,11.6,0,17.3,0C393.4,171.9,394.5,162.3,395.6,152.7z"/>
</g>
</svg>
