<svg id="Layer_1" data-name="Layer 1" xmlns="http://www.w3.org/2000/svg" viewBox="0 0 500.01 499.99"><defs><style>.cls-1{fill:#1e1e1e;}</style></defs><path class="cls-1" d="M247.1,500C108.1,498.5-.7,384.3,0,249,.7,115.2,106.5,4.9,240.8.2,386.2-4.9,500.8,112.2,500,251,499.2,392.4,383.6,502,247.1,500Zm4.1-468.2C134.2,31.1,33.5,126,34.1,249.9c.5,119.6,96.5,214.3,213.7,216.1,120.3,1.8,220.9-94.3,220.5-217.8C467.8,123.9,366.3,31,251.2,31.8Z" transform="translate(0 -0.04)"/><path class="cls-1" d="M248.8,160.3c10.6-.3,20.6.6,29.7,6.2,26.5-27.4,58.7-44.5,96.6-52.7-1,1.3-1.5,1.9-2,2.6-12.4,16.2-24.7,32.4-37.2,48.6a29.68,29.68,0,0,0-6.1,19.3c.3,39.7.4,79.5.6,119.2,0,5.1.2,10.1.6,15.2a5.43,5.43,0,0,0,1.8,3.5c5.3,4.3,11.4,4.4,17.7,2.9,9-2.2,16.8-6.8,23.9-12.5,8-6.4,15.6-13.4,23.2-20a2.8,2.8,0,0,1-.1.6c-20.2,39.5-47.1,73.1-84.7,97.4-4.2,2.7-4.3,2.7-8.1-.6-9.6-8.1-19.3-16.2-28.9-24.4-.4-.3-.9-.6-1.6-1.1-1.5,1.6-2.9,3.1-4.4,4.6-10,10.7-20.1,21.3-30.1,32a4.11,4.11,0,0,1-3.9,1.5c-29.3-3.9-57.2-11.8-82.8-27.2a105.31,105.31,0,0,1-30.2-26.6,21.17,21.17,0,0,1-1.5-2.1c4.5.4,9,1.3,13.4,1,7.7-.5,11.6-5.1,11.6-12.8.1-29.4.1-58.7.1-88.1V218.3c0-9.9-7.2-15.6-16.9-13.7-7.1,1.5-13.2,5.1-18.9,9.4C97,224.6,85.9,237.6,75.4,251.2a234.41,234.41,0,0,0-25.1,40.1,15,15,0,0,1-1,1.6c-.2-1.9-.4-3.2-.5-4.5-1.1-22.2,5.1-42.6,15-62.1a181.31,181.31,0,0,1,25.7-37.4c19-21.6,39.1-41.9,62.6-58.7a208.25,208.25,0,0,1,65.7-31.3,11.28,11.28,0,0,1,1.4-.2c-3.5,2.7-6.8,5.1-9.8,7.7-9.3,8.1-17.1,17.3-20.1,29.7a45.09,45.09,0,0,0,.9,24.7c2.2,6.9,7.6,11.7,16.3,7.4a8.64,8.64,0,0,1,1.5-.5V171c0,48.1.2,96.2-.1,144.3,0,7,3,11.6,7.9,15.6,6.2,5.1,13.4,6,20.9,4,11.3-3,20.7-9.5,29.7-16.7a3.37,3.37,0,0,0,.8-2.3c0-41.8.2-83.6-.2-125.4-.1-9.3-5-17.3-11.2-24.1C253.7,164.6,251.3,162.7,248.8,160.3Z" transform="translate(0 -0.04)"/><path class="cls-1" d="M415.3,129.3c-2.3,17.4-4.7,34.7-7.1,52.5h9.3c-.5,4.3-.9,8.1-1.4,12a2.38,2.38,0,0,1-1.8,1.2c-2.5.1-4.9.1-7.6.1-.6,5-1.3,9.7-1.9,14.6,1.2.2,2.2.4,3.5.6-.2,1.3-.3,2.5-.5,3.8H388.5c.7-6.3,1.5-12.4,2.3-19H356.7c1.1-6.7.9-13,5.3-18.8,9.3-12.3,17.9-25.1,26.7-37.8a4.58,4.58,0,0,1,4.3-2.3,60.6,60.6,0,0,0,8.5-.5c5.2-.6,9.9-2.6,13.4-6.8C414.9,129,415.1,129.2,415.3,129.3Zm-19.7,23.4c-.3-.1-.5-.1-.8-.2l-20,29.1h17.3C393.4,171.9,394.5,162.3,395.6,152.7Z" transform="translate(0 -0.04)"/></svg>